<svg width="550" height="550" viewBox="0 0 550 550" fill="none" xmlns="http://www.w3.org/2000/svg">
<path fill-rule="evenodd" clip-rule="evenodd" d="M496.063 51.2641C501.203 55.6184 504.167 62.0136 504.167 68.75V366.667C504.167 379.323 493.906 389.583 481.25 389.583C468.593 389.583 458.333 379.323 458.333 366.667V95.8022L229.167 133.997V412.5C229.167 425.157 218.906 435.417 206.25 435.417C193.593 435.417 183.333 425.157 183.333 412.5V114.583C183.333 103.381 191.432 93.8202 202.482 91.9785L477.482 46.1451C484.127 45.0377 490.923 46.9099 496.063 51.2641Z" fill="white"/>
<path fill-rule="evenodd" clip-rule="evenodd" d="M137.5 366.667C112.187 366.667 91.6666 387.187 91.6666 412.5C91.6666 437.813 112.187 458.333 137.5 458.333C162.813 458.333 183.333 437.813 183.333 412.5C183.333 387.187 162.813 366.667 137.5 366.667ZM45.8333 412.5C45.8333 361.874 86.8738 320.833 137.5 320.833C188.126 320.833 229.167 361.874 229.167 412.5C229.167 463.126 188.126 504.167 137.5 504.167C86.8738 504.167 45.8333 463.126 45.8333 412.5Z" fill="white"/>
<path fill-rule="evenodd" clip-rule="evenodd" d="M412.5 320.833C387.187 320.833 366.667 341.354 366.667 366.667C366.667 391.98 387.187 412.5 412.5 412.5C437.813 412.5 458.333 391.98 458.333 366.667C458.333 341.354 437.813 320.833 412.5 320.833ZM320.833 366.667C320.833 316.041 361.874 275 412.5 275C463.126 275 504.167 316.041 504.167 366.667C504.167 417.293 463.126 458.333 412.5 458.333C361.874 458.333 320.833 417.293 320.833 366.667Z" fill="white"/>
</svg>
