<svg width="95" height="12" viewBox="0 0 95 12" fill="none" xmlns="http://www.w3.org/2000/svg">
<path d="M4.80373 11C4.64373 11 4.51873 10.96 4.42873 10.88C4.33873 10.8 4.27373 10.7 4.23373 10.58L1.02373 0.949985C1.00373 0.899985 0.993729 0.854985 0.993729 0.814985C0.993729 0.724985 1.02373 0.649985 1.08373 0.589985C1.14373 0.529985 1.21873 0.499985 1.30873 0.499985H2.62873C2.76873 0.499985 2.87373 0.539985 2.94373 0.619985C3.02373 0.689985 3.07373 0.759985 3.09373 0.829985L5.62873 8.55499L8.16373 0.829985C8.18373 0.759985 8.22873 0.689985 8.29873 0.619985C8.37873 0.539985 8.48873 0.499985 8.62873 0.499985H9.94873C10.0287 0.499985 10.0987 0.529985 10.1587 0.589985C10.2287 0.649985 10.2637 0.724985 10.2637 0.814985C10.2637 0.854985 10.2537 0.899985 10.2337 0.949985L7.02373 10.58C6.98373 10.7 6.91873 10.8 6.82873 10.88C6.73873 10.96 6.61373 11 6.45373 11H4.80373Z" fill="white"/>
<path d="M12.2112 11C12.1112 11 12.0262 10.965 11.9562 10.895C11.8862 10.825 11.8512 10.74 11.8512 10.64V0.874985C11.8512 0.764985 11.8862 0.674985 11.9562 0.604985C12.0262 0.534985 12.1112 0.499985 12.2112 0.499985H13.5312C13.6412 0.499985 13.7312 0.534985 13.8012 0.604985C13.8712 0.674985 13.9062 0.764985 13.9062 0.874985V4.38498L17.2962 0.769985C17.3362 0.719985 17.4011 0.664985 17.4911 0.604985C17.5911 0.534985 17.7212 0.499985 17.8812 0.499985H19.3662C19.4462 0.499985 19.5162 0.529985 19.5762 0.589985C19.6462 0.649985 19.6812 0.724985 19.6812 0.814985C19.6812 0.884985 19.6612 0.944985 19.6212 0.994985L15.4962 5.52499L19.9062 10.49C19.9562 10.55 19.9811 10.615 19.9811 10.685C19.9811 10.775 19.9461 10.85 19.8762 10.91C19.8162 10.97 19.7462 11 19.6662 11H18.1212C17.9512 11 17.8162 10.965 17.7162 10.895C17.6262 10.815 17.5661 10.76 17.5361 10.73L13.9062 6.75498V10.64C13.9062 10.74 13.8712 10.825 13.8012 10.895C13.7312 10.965 13.6412 11 13.5312 11H12.2112Z" fill="white"/>
<path d="M25.0289 11C24.9189 11 24.8289 10.965 24.7589 10.895C24.6889 10.825 24.6539 10.74 24.6539 10.64V0.874985C24.6539 0.764985 24.6889 0.674985 24.7589 0.604985C24.8289 0.534985 24.9189 0.499985 25.0289 0.499985H26.2139C26.3539 0.499985 26.4589 0.539985 26.5289 0.619985C26.5989 0.689985 26.6439 0.744985 26.6639 0.784985L29.5589 6.18499L32.4839 0.784985C32.5039 0.744985 32.5489 0.689985 32.6189 0.619985C32.6889 0.539985 32.7939 0.499985 32.9339 0.499985H34.1039C34.2139 0.499985 34.3039 0.534985 34.3739 0.604985C34.4439 0.674985 34.4789 0.764985 34.4789 0.874985V10.64C34.4789 10.74 34.4439 10.825 34.3739 10.895C34.3039 10.965 34.2139 11 34.1039 11H32.8439C32.7339 11 32.6439 10.965 32.5739 10.895C32.5139 10.825 32.4839 10.74 32.4839 10.64V4.14499L30.3839 8.14999C30.3339 8.23999 30.2689 8.31999 30.1889 8.38999C30.1089 8.44999 30.0039 8.47999 29.8739 8.47999H29.2589C29.1189 8.47999 29.0089 8.44999 28.9289 8.38999C28.8589 8.31999 28.7989 8.23999 28.7489 8.14999L26.6489 4.14499V10.64C26.6489 10.74 26.6139 10.825 26.5439 10.895C26.4739 10.965 26.3889 11 26.2889 11H25.0289Z" fill="white"/>
<path d="M39.5271 11.15C38.9171 11.15 38.3871 11.015 37.9371 10.745C37.4971 10.465 37.1571 10.075 36.9171 9.57499C36.6771 9.06499 36.5571 8.46499 36.5571 7.77499V3.55998C36.5571 3.45998 36.5921 3.37498 36.6621 3.30499C36.7321 3.23498 36.8171 3.19998 36.9171 3.19998H38.2371C38.3471 3.19998 38.4321 3.23498 38.4921 3.30499C38.5621 3.37498 38.5971 3.45998 38.5971 3.55998V7.68499C38.5971 8.92499 39.1421 9.54499 40.2321 9.54499C40.7521 9.54499 41.1621 9.37999 41.4621 9.04999C41.7721 8.71999 41.9271 8.26499 41.9271 7.68499V3.55998C41.9271 3.45998 41.9621 3.37498 42.0321 3.30499C42.1021 3.23498 42.1871 3.19998 42.2871 3.19998H43.6071C43.7071 3.19998 43.7921 3.23498 43.8621 3.30499C43.9321 3.37498 43.9671 3.45998 43.9671 3.55998V10.64C43.9671 10.74 43.9321 10.825 43.8621 10.895C43.7921 10.965 43.7071 11 43.6071 11H42.3921C42.2821 11 42.1921 10.965 42.1221 10.895C42.0621 10.825 42.0321 10.74 42.0321 10.64V10.025C41.7621 10.375 41.4271 10.65 41.0271 10.85C40.6271 11.05 40.1271 11.15 39.5271 11.15Z" fill="white"/>
<path d="M48.9035 11.15C48.3035 11.15 47.7885 11.08 47.3585 10.94C46.9385 10.8 46.5935 10.625 46.3235 10.415C46.0535 10.205 45.8535 9.99499 45.7235 9.78499C45.5935 9.57499 45.5235 9.39999 45.5135 9.25999C45.5035 9.14999 45.5335 9.06499 45.6035 9.00499C45.6835 8.93499 45.7685 8.89999 45.8585 8.89999H47.0435C47.0835 8.89999 47.1185 8.90499 47.1485 8.91499C47.1785 8.92499 47.2185 8.95499 47.2685 9.00499C47.3985 9.11499 47.5335 9.22999 47.6735 9.34999C47.8235 9.46999 47.9985 9.57499 48.1985 9.66499C48.3985 9.74499 48.6485 9.78499 48.9485 9.78499C49.3385 9.78499 49.6635 9.70999 49.9235 9.55999C50.1935 9.39999 50.3285 9.17499 50.3285 8.88499C50.3285 8.67499 50.2685 8.50499 50.1485 8.37499C50.0385 8.24499 49.8285 8.12999 49.5185 8.02999C49.2085 7.91999 48.7685 7.80499 48.1985 7.68499C47.6385 7.55499 47.1735 7.38999 46.8035 7.18999C46.4335 6.98999 46.1585 6.73999 45.9785 6.43999C45.7985 6.13999 45.7085 5.78999 45.7085 5.38999C45.7085 4.99999 45.8235 4.62999 46.0535 4.27999C46.2935 3.91999 46.6435 3.62498 47.1035 3.39498C47.5735 3.16498 48.1535 3.04999 48.8435 3.04999C49.3835 3.04999 49.8535 3.11998 50.2535 3.25998C50.6535 3.38998 50.9835 3.55498 51.2435 3.75499C51.5135 3.95498 51.7185 4.15998 51.8585 4.36998C51.9985 4.56998 52.0735 4.74499 52.0835 4.89499C52.0935 5.00498 52.0635 5.09498 51.9935 5.16498C51.9235 5.22498 51.8435 5.25498 51.7535 5.25498H50.6435C50.5935 5.25498 50.5485 5.24499 50.5085 5.22499C50.4685 5.20499 50.4285 5.17999 50.3885 5.14999C50.2785 5.04999 50.1585 4.94499 50.0285 4.83499C49.8985 4.71499 49.7385 4.61499 49.5485 4.53499C49.3685 4.45499 49.1285 4.41499 48.8285 4.41499C48.4485 4.41499 48.1585 4.49998 47.9585 4.66998C47.7585 4.82998 47.6585 5.03499 47.6585 5.28499C47.6585 5.45499 47.7035 5.60499 47.7935 5.73499C47.8935 5.85499 48.0885 5.96999 48.3785 6.07999C48.6685 6.18999 49.1085 6.30498 49.6985 6.42498C50.3685 6.54498 50.8985 6.72499 51.2885 6.96498C51.6885 7.19499 51.9685 7.46499 52.1285 7.77499C52.2985 8.07499 52.3835 8.40999 52.3835 8.77999C52.3835 9.22999 52.2485 9.63499 51.9785 9.99499C51.7185 10.355 51.3285 10.64 50.8085 10.85C50.2985 11.05 49.6635 11.15 48.9035 11.15Z" fill="white"/>
<path d="M54.2919 11C54.1919 11 54.1069 10.965 54.0369 10.895C53.9669 10.825 53.9319 10.74 53.9319 10.64V3.55998C53.9319 3.45998 53.9669 3.37498 54.0369 3.30499C54.1069 3.23498 54.1919 3.19998 54.2919 3.19998H55.5369C55.6469 3.19998 55.7319 3.23498 55.7919 3.30499C55.8619 3.37498 55.8969 3.45998 55.8969 3.55998V10.64C55.8969 10.74 55.8619 10.825 55.7919 10.895C55.7319 10.965 55.6469 11 55.5369 11H54.2919ZM54.2319 1.90999C54.1319 1.90999 54.0469 1.87499 53.9769 1.80498C53.9069 1.73499 53.8719 1.64999 53.8719 1.54998V0.469985C53.8719 0.369985 53.9069 0.284985 53.9769 0.214985C54.0469 0.144985 54.1319 0.109985 54.2319 0.109985H55.5969C55.7069 0.109985 55.7969 0.144985 55.8669 0.214985C55.9369 0.284985 55.9719 0.369985 55.9719 0.469985V1.54998C55.9719 1.64999 55.9369 1.73499 55.8669 1.80498C55.7969 1.87499 55.7069 1.90999 55.5969 1.90999H54.2319Z" fill="white"/>
<path d="M61.262 11.15C60.542 11.15 59.907 11.015 59.357 10.745C58.817 10.475 58.392 10.085 58.082 9.57499C57.782 9.05499 57.617 8.42999 57.587 7.69999C57.577 7.54999 57.572 7.35499 57.572 7.11499C57.572 6.86499 57.577 6.65999 57.587 6.49999C57.617 5.76999 57.782 5.14999 58.082 4.63999C58.392 4.11999 58.817 3.72499 59.357 3.45499C59.907 3.18499 60.542 3.04999 61.262 3.04999C61.902 3.04999 62.447 3.13999 62.897 3.31999C63.347 3.48999 63.717 3.71499 64.007 3.99499C64.297 4.26499 64.512 4.54999 64.652 4.84999C64.802 5.13999 64.882 5.40499 64.892 5.64499C64.902 5.75499 64.867 5.84499 64.787 5.91499C64.717 5.97499 64.632 6.00499 64.532 6.00499H63.212C63.112 6.00499 63.032 5.97999 62.972 5.92999C62.922 5.87999 62.872 5.80499 62.822 5.70499C62.672 5.30499 62.472 5.02499 62.222 4.86499C61.982 4.69499 61.672 4.60999 61.292 4.60999C60.792 4.60999 60.392 4.76998 60.092 5.08998C59.802 5.39999 59.647 5.89499 59.627 6.57499C59.607 6.95499 59.607 7.30499 59.627 7.62499C59.647 8.31499 59.802 8.81499 60.092 9.12499C60.392 9.43499 60.792 9.58999 61.292 9.58999C61.682 9.58999 61.997 9.50999 62.237 9.34999C62.477 9.17999 62.672 8.89499 62.822 8.49499C62.872 8.39499 62.922 8.31999 62.972 8.26999C63.032 8.21999 63.112 8.19499 63.212 8.19499H64.532C64.632 8.19499 64.717 8.22999 64.787 8.29999C64.867 8.35999 64.902 8.44499 64.892 8.55499C64.882 8.73499 64.832 8.93999 64.742 9.16999C64.662 9.38999 64.527 9.61999 64.337 9.85999C64.157 10.09 63.927 10.305 63.647 10.505C63.367 10.695 63.027 10.85 62.627 10.97C62.237 11.09 61.782 11.15 61.262 11.15Z" fill="white"/>
<path d="M70.424 11C70.324 11 70.239 10.965 70.169 10.895C70.099 10.825 70.064 10.74 70.064 10.64V0.874985C70.064 0.764985 70.099 0.674985 70.169 0.604985C70.239 0.534985 70.324 0.499985 70.424 0.499985H74.774C75.584 0.499985 76.244 0.624985 76.754 0.874985C77.264 1.11499 77.639 1.44999 77.879 1.87998C78.129 2.30999 78.254 2.80999 78.254 3.37999C78.254 3.75998 78.184 4.09498 78.044 4.38498C77.914 4.66498 77.749 4.89499 77.549 5.07499C77.359 5.25499 77.169 5.39499 76.979 5.49499C77.369 5.67499 77.714 5.97499 78.014 6.39499C78.314 6.81499 78.464 7.31499 78.464 7.89499C78.464 8.49499 78.329 9.02999 78.059 9.49999C77.789 9.96999 77.389 10.34 76.859 10.61C76.329 10.87 75.674 11 74.894 11H70.424ZM72.149 9.40999H74.654C75.194 9.40999 75.604 9.26499 75.884 8.97499C76.164 8.67499 76.304 8.31499 76.304 7.89499C76.304 7.45499 76.159 7.08999 75.869 6.79999C75.589 6.50999 75.184 6.36499 74.654 6.36499H72.149V9.40999ZM72.149 4.80499H74.504C75.034 4.80499 75.429 4.67999 75.689 4.42999C75.959 4.16999 76.094 3.83499 76.094 3.42499C76.094 3.00499 75.959 2.67498 75.689 2.43498C75.429 2.19499 75.034 2.07499 74.504 2.07499H72.149V4.80499Z" fill="white"/>
<path d="M83.6172 11.15C82.8172 11.15 82.1422 11.01 81.5922 10.73C81.0522 10.45 80.6372 10.055 80.3472 9.54499C80.0672 9.03499 79.9072 8.43999 79.8672 7.75999C79.8572 7.57999 79.8522 7.35999 79.8522 7.09999C79.8522 6.83999 79.8572 6.61999 79.8672 6.43999C79.9072 5.74999 80.0722 5.15499 80.3622 4.65499C80.6622 4.14499 81.0822 3.74998 81.6222 3.46998C82.1722 3.18998 82.8372 3.04999 83.6172 3.04999C84.3972 3.04999 85.0572 3.18998 85.5972 3.46998C86.1472 3.74998 86.5672 4.14499 86.8572 4.65499C87.1572 5.15499 87.3272 5.74999 87.3672 6.43999C87.3772 6.61999 87.3822 6.83999 87.3822 7.09999C87.3822 7.35999 87.3772 7.57999 87.3672 7.75999C87.3272 8.43999 87.1622 9.03499 86.8722 9.54499C86.5922 10.055 86.1772 10.45 85.6272 10.73C85.0872 11.01 84.4172 11.15 83.6172 11.15ZM83.6172 9.66499C84.1472 9.66499 84.5572 9.49999 84.8472 9.16999C85.1372 8.82999 85.2972 8.33499 85.3272 7.68499C85.3372 7.53499 85.3422 7.33999 85.3422 7.09999C85.3422 6.85999 85.3372 6.66499 85.3272 6.51499C85.2972 5.86499 85.1372 5.37498 84.8472 5.04498C84.5572 4.70498 84.1472 4.53499 83.6172 4.53499C83.0872 4.53499 82.6772 4.70498 82.3872 5.04498C82.0972 5.37498 81.9372 5.86499 81.9072 6.51499C81.8972 6.66499 81.8922 6.85999 81.8922 7.09999C81.8922 7.33999 81.8972 7.53499 81.9072 7.68499C81.9372 8.33499 82.0972 8.82999 82.3872 9.16999C82.6772 9.49999 83.0872 9.66499 83.6172 9.66499Z" fill="white"/>
<path d="M92.5106 11C91.9106 11 91.4056 10.895 90.9956 10.685C90.5856 10.475 90.2806 10.165 90.0806 9.75499C89.8806 9.33499 89.7806 8.81499 89.7806 8.19499V4.78998H88.5956C88.4956 4.78998 88.4106 4.75499 88.3406 4.68499C88.2706 4.61499 88.2356 4.52499 88.2356 4.41499V3.55998C88.2356 3.45998 88.2706 3.37498 88.3406 3.30499C88.4106 3.23498 88.4956 3.19998 88.5956 3.19998H89.7806V0.709985C89.7806 0.609985 89.8106 0.524985 89.8706 0.454985C89.9406 0.384985 90.0306 0.349985 90.1406 0.349985H91.3556C91.4556 0.349985 91.5406 0.384985 91.6106 0.454985C91.6806 0.524985 91.7156 0.609985 91.7156 0.709985V3.19998H93.5906C93.6906 3.19998 93.7756 3.23498 93.8456 3.30499C93.9156 3.37498 93.9506 3.45998 93.9506 3.55998V4.41499C93.9506 4.52499 93.9156 4.61499 93.8456 4.68499C93.7756 4.75499 93.6906 4.78998 93.5906 4.78998H91.7156V8.04499C91.7156 8.45499 91.7856 8.77499 91.9256 9.00499C92.0756 9.23499 92.3306 9.34999 92.6906 9.34999H93.7256C93.8256 9.34999 93.9106 9.38499 93.9806 9.45499C94.0506 9.52499 94.0856 9.60999 94.0856 9.70999V10.64C94.0856 10.74 94.0506 10.825 93.9806 10.895C93.9106 10.965 93.8256 11 93.7256 11H92.5106Z" fill="white"/>
</svg>
