<svg width="256" height="256" viewBox="0 0 256 256" fill="none" xmlns="http://www.w3.org/2000/svg">
<rect width="256" height="256" fill="#7289DA"/>
<path d="M164.868 184C164.868 184 160.029 178.216 155.997 173.104C173.605 168.126 180.326 157.096 180.326 157.096C174.815 160.728 169.573 163.284 164.868 165.032C158.147 167.857 151.695 169.741 145.378 170.817C132.473 173.238 120.645 172.566 110.563 170.682C102.902 169.203 96.3151 167.05 90.8039 164.898C87.7123 163.687 84.3519 162.207 80.9914 160.324C80.5882 160.055 80.1849 159.92 79.7817 159.651C79.5128 159.517 79.3784 159.382 79.244 159.248C76.8245 157.903 75.4803 156.961 75.4803 156.961C75.4803 156.961 81.9324 167.723 99.0034 172.835C94.9709 177.946 89.9974 184 89.9974 184C60.2911 183.058 49 163.553 49 163.553C49 120.236 68.3562 85.126 68.3562 85.126C87.7123 70.5975 106.128 71.0011 106.128 71.0011L107.472 72.6154C83.2765 79.6106 72.1199 90.2378 72.1199 90.2378C72.1199 90.2378 75.0771 88.6236 80.0505 86.3367C94.4332 80.0141 105.859 78.2653 110.563 77.8618C111.37 77.7272 112.042 77.5927 112.848 77.5927C121.048 76.5165 130.323 76.2475 140.001 77.3237C152.771 78.8034 166.481 82.5701 180.461 90.2378C180.461 90.2378 169.842 80.1486 146.991 73.1535L148.872 71.0011C148.872 71.0011 167.288 70.5975 186.644 85.126C186.644 85.126 206 120.236 206 163.553C206 163.553 194.574 183.058 164.868 184Z" fill="white"/>
<path d="M102.624 121C95.0106 121 89 127.757 89 136C89 144.243 95.1441 151 102.624 151C110.237 151 116.248 144.243 116.248 136C116.381 127.757 110.237 121 102.624 121ZM151.376 121C143.763 121 137.752 127.757 137.752 136C137.752 144.243 143.896 151 151.376 151C158.989 151 165 144.243 165 136C165 127.757 158.989 121 151.376 121Z" fill="#7289DA"/>
</svg>
